Coordinates
version=1
nRows=13
nColumns=38
inDegrees=yes

Units are S.I. units (second, meters, Newtons, ...)
If the header above contains a line with 'inDegrees', this indicates whether rotational values are in degrees (yes) or radians (no).

endheader
time	pelvis_tilt	pelvis_list	pelvis_rotation	pelvis_tx	pelvis_ty	pelvis_tz	hip_flexion_r	hip_adduction_r	hip_rotation_r	knee_angle_r	ankle_angle_r	subtalar_angle_r	mtp_angle_r	hip_flexion_l	hip_adduction_l	hip_rotation_l	knee_angle_l	ankle_angle_l	subtalar_angle_l	mtp_angle_l	lumbar_extension	lumbar_bending	lumbar_rotation	arm_flex_r	arm_add_r	arm_rot_r	elbow_flex_r	pro_sup_r	wrist_flex_r	wrist_dev_r	arm_flex_l	arm_add_l	arm_rot_l	elbow_flex_l	pro_sup_l	wrist_flex_l	wrist_dev_l
      0.97200000	    -11.01897798	      7.54068484	      0.97054570	      3.28363832	      0.93369149	      0.25228782	    -33.60038880	     -6.12175217	     -8.97040498	    -34.06961658	    -30.64603876	     -2.63360944	     12.38928340	     68.82313483	      5.15173108	     -9.03535824	    -52.74329651	      3.76351670	      4.55894189	     18.75707960	     -1.40178876	    -13.16108674	      9.09527660	     44.37647697	    -32.75759494	      0.37938672	    122.97770224	    137.85807481	      0.00000000	      0.00000000	    -83.26378361	    -22.37966147	    -24.40049402	     52.11622866	    154.72019230	      0.00000000	      0.00000000
      0.97600000	    -10.74571887	      7.40454492	      1.52236536	      3.32129469	      0.93551235	      0.25239871	    -32.98164560	     -5.92417546	     -9.51485666	    -39.18495234	    -31.22510651	     -2.08265126	     12.63354255	     66.56513155	      5.61616101	     -8.78535154	    -47.26852242	      3.26274968	      8.52521776	     19.80826225	     -2.23027316	    -13.17181218	      8.33239561	     42.03416745	    -33.03563590	      0.21664535	    124.15210359	    138.23484627	      0.00000000	      0.00000000	    -81.67146170	    -22.22558929	    -24.18126281	     52.17534717	    154.52997102	      0.00000000	      0.00000000
      0.98000000	    -10.20790724	      7.44146299	      1.66224206	      3.35901311	      0.93764313	      0.25294016	    -32.39611380	     -6.18368320	     -9.87813647	    -44.56046554	    -31.97080192	     -1.39676153	     13.48587008	     63.96654754	      5.78375867	     -8.99836611	    -42.08554392	      2.79121044	     12.06554674	     22.25087974	     -3.29160834	    -13.39322140	      8.07176663	     39.20863473	    -33.07556617	     -0.87575048	    125.21298379	    138.82948057	      0.00000000	      0.00000000	    -80.06595749	    -22.38816646	    -23.60680681	     52.73854653	    154.11811638	      0.00000000	      0.00000000
      0.98400000	     -9.71440876	      6.63032334	      1.66069785	      3.39641933	      0.93937622	      0.25443922	    -31.45286260	     -5.50946923	     -9.31216569	    -50.11396905	    -32.66630266	     -1.90421034	     19.01748227	     61.68653241	      5.13076679	     -9.19044549	    -37.71761283	      1.15358767	     14.81484991	     26.63711927	     -4.23495940	    -12.70028997	      8.03467072	     36.22925811	    -33.28843084	     -1.37348721	    125.66458274	    140.26183291	      0.00000000	      0.00000000	    -78.44317705	    -22.69497986	    -22.82045158	     53.74050349	    152.95542314	      0.00000000	      0.00000000
      0.98800000	     -9.22541172	      5.81553101	      1.96951274	      3.43414476	      0.94035344	      0.25549028	    -30.54660593	     -4.70928910	     -9.07919978	    -55.61401555	    -33.07272709	     -1.36346943	     21.10170902	     59.61442221	      4.66934132	     -9.43484913	    -34.16285309	      0.38916065	     17.85159828	     27.64613807	     -5.16431739	    -11.92152896	      7.34838180	     33.46619457	    -33.06642855	     -1.50237547	    125.74392651	    140.96461028	      0.00000000	      0.00000000	    -76.69948858	    -22.62051838	    -22.20763381	     54.28550611	    152.46986175	      0.00000000	      0.00000000
      0.99200000	     -8.66706029	      5.00078255	      2.09259445	      3.47177238	      0.94138000	      0.25717827	    -29.58771709	     -3.87534895	     -8.65101257	    -61.11898989	    -33.01090876	     -1.37638004	     22.55667562	     57.57824189	      3.91212220	    -10.36450059	    -31.17929865	     -0.63914642	     19.88676649	     28.31614259	     -6.12710969	    -11.15939098	      7.08550981	     30.41793677	    -32.83183065	     -1.52939698	    125.59661976	    141.47033183	      0.00000000	      0.00000000	    -74.91060698	    -22.98425603	    -21.45586572	     55.34978070	    152.19365488	      0.00000000	      0.00000000
      0.99600000	     -8.09655281	      4.37828412	      1.95389782	      3.50913246	      0.94195852	      0.25801209	    -28.51834150	     -3.55031553	     -8.27871862	    -66.76022413	    -32.74003862	     -1.36300531	     24.22288908	     55.68850028	      3.17959313	    -11.56884414	    -28.90604312	     -1.10661969	     20.76507661	     29.10482391	     -7.10238252	    -10.50367202	      7.01158743	     27.39436907	    -32.78855606	     -1.66426217	    124.85422809	    142.12177064	      0.00000000	      0.00000000	    -73.05403380	    -23.25014768	    -20.35741595	     56.71026945	    151.77256896	      0.00000000	      0.00000000
      1.00000000	     -7.61486803	      3.85313409	      2.33595351	      3.54655539	      0.94217075	      0.25865091	    -27.47923931	     -2.95893920	     -8.38695834	    -72.19502490	    -31.87646967	     -1.47136429	     24.71051795	     54.01121953	      2.90757808	    -12.74909579	    -27.26125474	     -1.56748073	     20.68337079	     29.16294741	     -8.01150535	     -9.91186461	      6.24223253	     24.63048485	    -32.32787232	     -1.24796636	    123.63053568	    142.31809549	      0.00000000	      0.00000000	    -71.18416213	    -23.37235338	    -19.65142225	     58.03968614	    151.74637508	      0.00000000	      0.00000000
      1.00400000	     -6.87563052	      3.74727430	      2.21730487	      3.58398374	      0.94270197	      0.25966039	    -26.62524183	     -2.96407078	     -8.14749319	    -77.63909076	    -30.44445042	     -1.11029114	     25.38627566	     52.09337676	      2.57080964	    -14.54439892	    -26.20761354	     -1.35782499	     19.51102170	     29.40979835	     -9.17720815	     -9.79828502	      6.12223381	     21.51108044	    -31.91736832	     -1.13490412	    122.30649023	    142.72758131	      0.00000000	      0.00000000	    -69.19190012	    -24.09652732	    -18.19039084	     59.53538297	    151.60828504	      0.00000000	      0.00000000
      1.00800000	     -6.32093374	      3.85128266	      2.23534954	      3.62131081	      0.94270841	      0.25982452	    -25.56998179	     -3.24528045	     -8.25837043	    -83.05800614	    -29.11669246	     -1.48506786	     25.78281530	     50.60559954	      2.51513535	    -16.30602661	    -25.93906171	     -1.40174198	     17.68524785	     29.43461123	    -10.15751970	     -9.82642874	      5.70599310	     18.66639069	    -31.46013670	     -0.91605053	    120.31702337	    143.11043646	      0.00000000	      0.00000000	    -67.02722776	    -24.59631678	    -16.91205540	     60.91868800	    151.45985036	      0.00000000	      0.00000000
      1.01200000	     -5.82254473	      4.05272803	      2.30197068	      3.65852993	      0.94256856	      0.25985466	    -24.43780033	     -3.66694800	     -8.46742884	    -88.38691803	    -27.74359584	     -1.71670106	     26.14012842	     49.25599169	      2.56678423	    -17.75272028	    -26.16798941	     -1.52701747	     15.74913093	     29.27602870	    -11.10189599	     -9.92883858	      5.20075166	     15.90983316	    -30.87477410	     -0.69003744	    117.95944385	    143.46822415	      0.00000000	      0.00000000	    -64.69648645	    -25.13685677	    -15.56316561	     62.21561096	    151.33035827	      0.00000000	      0.00000000
      1.01600000	     -5.37024078	      4.05161322	      2.61654188	      3.69554130	      0.94232074	      0.26028187	    -23.20974684	     -3.61249476	     -8.72913844	    -93.56564684	    -26.34166624	     -2.44582795	     26.31387321	     48.04379047	      2.53724628	    -18.87211025	    -26.84454129	     -1.81261121	     14.16451824	     28.96179694	    -12.02648870	     -9.85494329	      4.35725028	     13.43714890	    -29.90493706	     -0.41220423	    115.04372866	    143.51790236	      0.00000000	      0.00000000	    -62.32588998	    -25.52115822	    -14.57325704	     63.51194169	    151.35472120	      0.00000000	      0.00000000
      1.02000000	     -5.18976640	      4.66861502	      2.58580440	      3.73225892	      0.94185391	      0.26006734	    -21.55723830	     -4.64844228	     -8.91462606	    -98.83939972	    -25.35614056	     -2.56602169	     26.26557367	     46.99274276	      2.82784777	    -20.43286154	    -27.62521038	     -2.40006617	     12.09743622	     28.14139058	    -12.67558573	    -10.38344992	      3.98578706	     10.72650060	    -29.36847474	     -0.20078199	    111.97359134	    143.88991617	      0.00000000	      0.00000000	    -59.55536009	    -26.38306580	    -12.77846757	     64.60146855	    151.24323808	      0.00000000	      0.00000000
